<svg xmlns="http://www.w3.org/2000/svg" version="1.1" xmlns:xlink="http://www.w3.org/1999/xlink" xmlns:svgjs="http://svgjs.dev/svgjs" width="1000" height="340" viewBox="0 0 1000 340"><g transform="matrix(1,0,0,1,-0.6060535619791381,-0.06741335822076167)"><svg viewBox="0 0 396 135" data-background-color="#ffffff" preserveAspectRatio="xMidYMid meet" height="340" width="1000" xmlns="http://www.w3.org/2000/svg" xmlns:xlink="http://www.w3.org/1999/xlink"><g id="tight-bounds" transform="matrix(1,0,0,1,0.2399972628420528,0.026767068705311203)"><svg viewBox="0 0 395.52 134.94646586258938" height="134.94646586258938" width="395.52"><g><svg viewBox="0 0 395.52 134.94646586258938" height="134.94646586258938" width="395.52"><g transform="matrix(1,0,0,1,0,83.40232968679106)"><svg viewBox="0 0 395.52 51.54413617579833" height="51.54413617579833" width="395.52"><g id="textblocktransform"><svg viewBox="0 0 395.52 51.54413617579833" height="51.54413617579833" width="395.52" id="textblock"><g><svg viewBox="0 0 395.52 51.54413617579833" height="51.54413617579833" width="395.52"><g transform="matrix(1,0,0,1,0,0)"><svg width="395.52" viewBox="2.450000047683716 -36 360.62091064453125 47" height="51.54413617579833" data-palette-color="#0080ff"><path d="M14.65 0.6L14.65 0.6Q11.05 0.6 8.3-1.1 5.55-2.8 4-5.75 2.45-8.7 2.45-12.45L2.45-12.45Q2.45-16.2 4-19.13 5.55-22.05 8.33-23.73 11.1-25.4 14.7-25.4L14.7-25.4Q17.65-25.4 19.88-24.25 22.1-23.1 23.35-21L23.35-21 23.35-36 28.65-36 28.65 0 23.9 0 23.35-3.85Q22.15-2.1 20.05-0.75 17.95 0.6 14.65 0.6ZM15.6-4L15.6-4Q19-4 21.18-6.35 23.35-8.7 23.35-12.4L23.35-12.4Q23.35-16.15 21.18-18.48 19-20.8 15.6-20.8L15.6-20.8Q12.2-20.8 10-18.48 7.8-16.15 7.8-12.4L7.8-12.4Q7.8-9.95 8.8-8.05 9.8-6.15 11.58-5.08 13.35-4 15.6-4ZM43.85 11L38.25 11 44.2-2.05 42.75-2.05 32.95-24.8 38.7-24.8 46.3-6.45 54.25-24.8 59.85-24.8 43.85 11ZM69.5 0L64.19 0 64.19-24.8 68.89-24.8 69.3-20.45Q70.44-22.75 72.67-24.08 74.89-25.4 77.8-25.4L77.8-25.4Q82.3-25.4 84.87-22.6 87.44-19.8 87.44-14.25L87.44-14.25 87.44 0 82.19 0 82.19-13.7Q82.19-20.9 76.3-20.9L76.3-20.9Q73.34-20.9 71.42-18.8 69.5-16.7 69.5-12.8L69.5-12.8 69.5 0ZM102.09 0.6L102.09 0.6Q98.94 0.6 96.89-0.45 94.84-1.5 93.84-3.23 92.84-4.95 92.84-7L92.84-7Q92.84-10.6 95.64-12.7 98.44-14.8 103.64-14.8L103.64-14.8 110.14-14.8 110.14-15.25Q110.14-18.15 108.57-19.6 106.99-21.05 104.49-21.05L104.49-21.05Q102.29-21.05 100.67-19.98 99.04-18.9 98.69-16.8L98.69-16.8 93.39-16.8Q93.64-19.5 95.22-21.43 96.79-23.35 99.22-24.38 101.64-25.4 104.54-25.4L104.54-25.4Q109.74-25.4 112.59-22.68 115.44-19.95 115.44-15.25L115.44-15.25 115.44 0 110.84 0 110.39-4.25Q109.34-2.2 107.34-0.8 105.34 0.6 102.09 0.6ZM103.14-3.7L103.14-3.7Q105.29-3.7 106.77-4.73 108.24-5.75 109.07-7.45 109.89-9.15 110.09-11.2L110.09-11.2 104.19-11.2Q101.04-11.2 99.72-10.1 98.39-9 98.39-7.35L98.39-7.35Q98.39-5.65 99.67-4.67 100.94-3.7 103.14-3.7ZM126.94 0L121.64 0 121.64-24.8 126.34-24.8 126.79-21.3Q127.99-23.2 129.97-24.3 131.94-25.4 134.54-25.4L134.54-25.4Q140.44-25.4 142.74-20.75L142.74-20.75Q144.09-22.9 146.37-24.15 148.64-25.4 151.29-25.4L151.29-25.4Q155.94-25.4 158.59-22.6 161.24-19.8 161.24-14.25L161.24-14.25 161.24 0 155.94 0 155.94-13.7Q155.94-20.9 150.44-20.9L150.44-20.9Q147.64-20.9 145.87-18.8 144.09-16.7 144.09-12.8L144.09-12.8 144.09 0 138.79 0 138.79-13.7Q138.79-20.9 133.24-20.9L133.24-20.9Q130.49-20.9 128.72-18.8 126.94-16.7 126.94-12.8L126.94-12.8 126.94 0ZM170.44-29.5L170.44-29.5Q168.94-29.5 167.96-30.43 166.99-31.35 166.99-32.75L166.99-32.75Q166.99-34.15 167.96-35.08 168.94-36 170.44-36L170.44-36Q171.94-36 172.91-35.08 173.89-34.15 173.89-32.75L173.89-32.75Q173.89-31.35 172.91-30.43 171.94-29.5 170.44-29.5ZM173.09 0L167.79 0 167.79-24.8 173.09-24.8 173.09 0ZM191.84 0.6L191.84 0.6Q188.19 0.6 185.31-1.05 182.44-2.7 180.81-5.63 179.19-8.55 179.19-12.4L179.19-12.4Q179.19-16.25 180.81-19.18 182.44-22.1 185.31-23.75 188.19-25.4 191.84-25.4L191.84-25.4Q196.44-25.4 199.56-23 202.69-20.6 203.59-16.5L203.59-16.5 198.04-16.5Q197.54-18.55 195.84-19.7 194.14-20.85 191.84-20.85L191.84-20.85Q189.89-20.85 188.24-19.88 186.59-18.9 185.59-17.03 184.59-15.15 184.59-12.4L184.59-12.4Q184.59-9.65 185.59-7.78 186.59-5.9 188.24-4.9 189.89-3.9 191.84-3.9L191.84-3.9Q194.14-3.9 195.84-5.05 197.54-6.2 198.04-8.3L198.04-8.3 203.59-8.3Q202.74-4.3 199.59-1.85 196.44 0.6 191.84 0.6ZM236.43 0L232.33 0Q228.68 0 226.53-1.78 224.38-3.55 224.38-8.1L224.38-8.1 224.38-20.35 220.13-20.35 220.13-24.8 224.38-24.8 225.03-31.1 229.68-31.1 229.68-24.8 236.68-24.8 236.68-20.35 229.68-20.35 229.68-8.1Q229.68-6.05 230.56-5.28 231.43-4.5 233.58-4.5L233.58-4.5 236.43-4.5 236.43 0ZM250.53 0.6L250.53 0.6Q247.38 0.6 245.33-0.45 243.28-1.5 242.28-3.23 241.28-4.95 241.28-7L241.28-7Q241.28-10.6 244.08-12.7 246.88-14.8 252.08-14.8L252.08-14.8 258.58-14.8 258.58-15.25Q258.58-18.15 257-19.6 255.43-21.05 252.93-21.05L252.93-21.05Q250.73-21.05 249.1-19.98 247.48-18.9 247.13-16.8L247.13-16.8 241.83-16.8Q242.08-19.5 243.65-21.43 245.23-23.35 247.65-24.38 250.08-25.4 252.98-25.4L252.98-25.4Q258.18-25.4 261.03-22.68 263.88-19.95 263.88-15.25L263.88-15.25 263.88 0 259.28 0 258.83-4.25Q257.78-2.2 255.78-0.8 253.78 0.6 250.53 0.6ZM251.58-3.7L251.58-3.7Q253.73-3.7 255.2-4.73 256.68-5.75 257.5-7.45 258.33-9.15 258.53-11.2L258.53-11.2 252.63-11.2Q249.48-11.2 248.15-10.1 246.83-9 246.83-7.35L246.83-7.35Q246.83-5.65 248.1-4.67 249.38-3.7 251.58-3.7ZM284.03 0.6L284.03 0.6Q281.13 0.6 278.9-0.55 276.68-1.7 275.38-3.8L275.38-3.8 274.83 0 270.08 0 270.08-36 275.38-36 275.38-20.95Q276.58-22.7 278.68-24.05 280.78-25.4 284.08-25.4L284.08-25.4Q287.68-25.4 290.43-23.7 293.18-22 294.75-19.05 296.33-16.1 296.33-12.35L296.33-12.35Q296.33-8.6 294.75-5.68 293.18-2.75 290.43-1.07 287.68 0.6 284.03 0.6ZM283.13-4L283.13-4Q286.53-4 288.73-6.33 290.93-8.65 290.93-12.4L290.93-12.4Q290.93-14.85 289.93-16.75 288.93-18.65 287.18-19.73 285.43-20.8 283.13-20.8L283.13-20.8Q279.73-20.8 277.55-18.45 275.38-16.1 275.38-12.4L275.38-12.4Q275.38-8.65 277.55-6.33 279.73-4 283.13-4ZM307.37 0L302.07 0 302.07-36 307.37-36 307.37 0ZM325.67 0.6L325.67 0.6Q322.02 0.6 319.2-1.03 316.37-2.65 314.77-5.55 313.17-8.45 313.17-12.3L313.17-12.3Q313.17-16.2 314.75-19.15 316.32-22.1 319.15-23.75 321.97-25.4 325.72-25.4L325.72-25.4Q329.37-25.4 332.07-23.78 334.77-22.15 336.27-19.45 337.77-16.75 337.77-13.5L337.77-13.5Q337.77-13 337.75-12.43 337.72-11.85 337.67-11.15L337.67-11.15 318.37-11.15Q318.62-7.55 320.75-5.68 322.87-3.8 325.67-3.8L325.67-3.8Q327.92-3.8 329.45-4.83 330.97-5.85 331.72-7.6L331.72-7.6 337.02-7.6Q336.02-4.1 333.05-1.75 330.07 0.6 325.67 0.6ZM325.67-21.05L325.67-21.05Q323.02-21.05 320.97-19.48 318.92-17.9 318.47-14.75L318.47-14.75 332.47-14.75Q332.32-17.65 330.42-19.35 328.52-21.05 325.67-21.05ZM353.17 0.6L353.17 0.6Q348.47 0.6 345.42-1.7 342.37-4 341.92-7.8L341.92-7.8 347.27-7.8Q347.67-6.1 349.17-4.88 350.67-3.65 353.12-3.65L353.12-3.65Q355.52-3.65 356.62-4.65 357.72-5.65 357.72-6.95L357.72-6.95Q357.72-8.85 356.19-9.53 354.67-10.2 351.97-10.75L351.97-10.75Q349.87-11.2 347.79-11.95 345.72-12.7 344.34-14.08 342.97-15.45 342.97-17.8L342.97-17.8Q342.97-21.05 345.47-23.23 347.97-25.4 352.47-25.4L352.47-25.4Q356.62-25.4 359.19-23.4 361.77-21.4 362.22-17.75L362.22-17.75 357.12-17.75Q356.87-19.35 355.64-20.25 354.42-21.15 352.37-21.15L352.37-21.15Q350.37-21.15 349.27-20.33 348.17-19.5 348.17-18.2L348.17-18.2Q348.17-16.9 349.69-16.15 351.22-15.4 353.72-14.8L353.72-14.8Q356.22-14.25 358.34-13.53 360.47-12.8 361.77-11.4 363.07-10 363.07-7.3L363.07-7.3Q363.12-3.9 360.44-1.65 357.77 0.6 353.17 0.6Z" opacity="1" transform="matrix(1,0,0,1,0,0)" fill="#0080ff" class="wordmark-text-0" data-fill-palette-color="primary" id="text-0"></path></svg></g></svg></g></svg></g></svg></g><g transform="matrix(1,0,0,1,162.14300190252334,0)"><svg viewBox="0 0 71.23399619495328 71.23399619495329" height="71.23399619495329" width="71.23399619495328"><g><svg></svg></g><g id="icon-0"><svg viewBox="0 0 71.23399619495328 71.23399619495329" height="71.23399619495329" width="71.23399619495328"><g><path xmlns="http://www.w3.org/2000/svg" d="M21.37 71.234c-11.802 0-21.37-9.568-21.37-21.37v-28.494c0-11.802 9.568-21.37 21.37-21.37h28.494c11.802 0 21.37 9.568 21.37 21.37v28.494c0 11.802-9.568 21.37-21.37 21.37z" fill="#0080ff" fill-rule="nonzero" stroke="none" stroke-width="1" stroke-linecap="butt" stroke-linejoin="miter" stroke-miterlimit="10" stroke-dasharray="" stroke-dashoffset="0" font-family="none" font-weight="none" font-size="none" text-anchor="none" style="mix-blend-mode: normal" data-fill-palette-color="accent"></path></g><g transform="matrix(1,0,0,1,18.68384949409236,14.246799238990658)"><svg viewBox="0 0 33.86629720676856 42.74039771697198" height="42.74039771697198" width="33.86629720676856"><g><svg xmlns="http://www.w3.org/2000/svg" xmlns:xlink="http://www.w3.org/1999/xlink" version="1.1" x="0" y="0" viewBox="-250.70001220703125 140.98709106445312 63.399993896484375 80.01290893554688" enable-background="new -269 131 100 100" xml:space="preserve" height="42.74039771697198" width="33.86629720676856" class="icon-s-0" data-fill-palette-color="quaternary" id="s-0"><path d="M-200.1 163.7l-1-0.8c-1.2-1-3.1-0.6-3.8 0.8-0.3 0.7-0.6 7.7-0.6 8.9 0 0.2 0 0.6 0 0.7 0 1-0.9 1.8-1.9 1.6-0.8-0.1-1.4-0.9-1.4-1.7-0.1-12-3.7-20.4-10.5-26.7-4.1-3.8-9-7.2-10.5-4.6-0.4 0.7 0.2 2.2 0.9 4.1 1.4 4.3-2.9 11.2-9 18.1-5.7 6.5-12.8 14.5-12.8 26.4 0 16 15.1 30.5 31.7 30.5 16.6 0 31.7-14.5 31.7-30.5C-187.3 180.4-192.1 170.4-200.1 163.7zM-219 215.2c-7.2 0-13.1-5.9-13.1-13.1 0-3.6 1.4-6.8 3.8-9.2l7.2-8.6c1.1-1.3 3.2-1.3 4.3 0l7.2 8.6c2.3 2.4 3.8 5.6 3.8 9.2C-205.9 209.3-211.8 215.2-219 215.2z" fill="#ffffff" data-fill-palette-color="quaternary"></path></svg></g></svg></g></svg></g></svg></g><g></g></svg></g><defs></defs></svg><rect width="395.52" height="134.94646586258938" fill="none" stroke="none" visibility="hidden"></rect></g></svg></g></svg>