<svg width="15" height="15" viewBox="0 0 15 15" fill="none" xmlns="http://www.w3.org/2000/svg">
<g clip-path="url(#clip0_1_12)">
<path d="M14.6697 7.7508C14.6697 7.27497 14.6304 6.79656 14.5464 6.32843H7.81014V9.02403H11.6677C11.5076 9.89336 10.9933 10.6624 10.2401 11.1511V12.9002H12.5415C13.893 11.681 14.6697 9.88055 14.6697 7.7508Z" fill="#4285F4"/>
<path d="M7.81014 14.5902C9.73626 14.5902 11.3606 13.9703 12.5441 12.9003L10.2427 11.1512C9.60242 11.5782 8.77579 11.82 7.81273 11.82C5.94957 11.82 4.36981 10.588 3.80299 8.93155H1.42811V10.7346C2.64048 13.0984 5.10983 14.5902 7.81014 14.5902Z" fill="#34A853"/>
<path d="M3.80059 8.93142C3.50144 8.06202 3.50144 7.12064 3.80059 6.25126V4.44821H1.42833C0.4154 6.42617 0.4154 8.75649 1.42833 10.7345L3.80059 8.93142Z" fill="#FBBC04"/>
<path d="M7.81014 3.36029C8.82829 3.34487 9.81235 3.72039 10.5497 4.40972L12.5888 2.41119C11.2977 1.22287 9.58408 0.569556 7.81014 0.590132C5.10983 0.590132 2.64048 2.08195 1.42811 4.4483L3.80037 6.25135C4.36457 4.59234 5.94694 3.36029 7.81014 3.36029Z" fill="#EA4335"/>
</g>
<defs>
<clipPath id="clip0_1_12">
<rect width="14" height="14" fill="white" transform="translate(0.669998 0.589996)"/>
</clipPath>
</defs>
</svg>
